# xmcd
#
# Track frame offsets:
#	150
#	16222
#	34690
#	52102
#	69020
#	84827
#	115030
#	129200
#	158050
#	178310
#	196022
#	219595
#
# Disc length: 3262 seconds
#
# Revision: 1
# Processed by: cddbd v1.5.1PL0 Copyright (c) Steve Scherf et al.
# Submitted via: CDex 1.50Beta5
#
DISCID=900cbc0c
DTITLE=ACIDMAN - LOOP
DYEAR=1900
DGENRE=Rock
TTITLE0=type-A
TTITLE1=波、白く
TTITLE2=アイソトープ
TTITLE3=飛光
TTITLE4=Slow View
TTITLE5=リピート
TTITLE6=16185-0
TTITLE7=O
TTITLE8=swayed
TTITLE9=ドライドアウト
TTITLE10=今、透明か(Album ver.)
TTITLE11=turn around
EXTD=
EXTT0=
EXTT1=
EXTT2=
EXTT3=
EXTT4=
EXTT5=
EXTT6=
EXTT7=
EXTT8=
EXTT9=
EXTT10=
EXTT11=
PLAYORDER=
